<!--?xml version="1.0" standalone="no"?-->
              <svg id="sw-js-blob-svg" viewBox="0 0 100 100" xmlns="http://www.w3.org/2000/svg" version="1.1">
                    <defs> 
                        <linearGradient id="sw-gradient" x1="0" x2="1" y1="1" y2="0">
                            <stop id="stop1" stop-color="rgba(248, 117, 55, 1)" offset="0%"></stop>
                            <stop id="stop2" stop-color="rgba(251, 168, 31, 1)" offset="100%"></stop>
                        </linearGradient>
                    </defs>
                <path fill="url(#sw-gradient)" d="M20.6,-27.4C25.7,-20.4,27.9,-12.8,29,-5.3C30.2,2.3,30.2,9.9,27.4,16.8C24.6,23.7,18.9,29.9,11.7,32.9C4.5,35.8,-4.2,35.5,-13.6,33.7C-23,31.8,-33.1,28.4,-39.1,21.1C-45,13.8,-46.8,2.6,-43.4,-6C-39.9,-14.6,-31.2,-20.7,-23.1,-27.2C-15,-33.6,-7.5,-40.5,0.2,-40.7C7.8,-40.8,15.6,-34.4,20.6,-27.4Z" width="100%" height="100%" transform="translate(50 50)" style="transition: all 0.3s ease 0s;" stroke-width="0"></path>
              </svg>